<svg id="visual" viewBox="0 0 960 540" width="960" height="540" xmlns="http://www.w3.org/2000/svg" xmlns:xlink="http://www.w3.org/1999/xlink" version="1.1"><path d="M0 66L87 66L87 60L175 60L175 39L262 39L262 60L349 60L349 50L436 50L436 77L524 77L524 93L611 93L611 50L698 50L698 66L785 66L785 87L873 87L873 44L960 44L960 71L960 0L960 0L873 0L873 0L785 0L785 0L698 0L698 0L611 0L611 0L524 0L524 0L436 0L436 0L349 0L349 0L262 0L262 0L175 0L175 0L87 0L87 0L0 0Z" fill="#ffd0d3"></path><path d="M0 174L87 174L87 136L175 136L175 98L262 98L262 190L349 190L349 152L436 152L436 152L524 152L524 141L611 141L611 114L698 114L698 190L785 190L785 179L873 179L873 158L960 158L960 147L960 69L960 42L873 42L873 85L785 85L785 64L698 64L698 48L611 48L611 91L524 91L524 75L436 75L436 48L349 48L349 58L262 58L262 37L175 37L175 58L87 58L87 64L0 64Z" fill="#ffacb5"></path><path d="M0 341L87 341L87 228L175 228L175 352L262 352L262 336L349 336L349 271L436 271L436 282L524 282L524 271L611 271L611 260L698 260L698 309L785 309L785 330L873 330L873 390L960 390L960 249L960 145L960 156L873 156L873 177L785 177L785 188L698 188L698 112L611 112L611 139L524 139L524 150L436 150L436 150L349 150L349 188L262 188L262 96L175 96L175 134L87 134L87 172L0 172Z" fill="#ff8699"></path><path d="M0 460L87 460L87 428L175 428L175 482L262 482L262 449L349 449L349 482L436 482L436 498L524 498L524 455L611 455L611 498L698 498L698 471L785 471L785 471L873 471L873 482L960 482L960 482L960 247L960 388L873 388L873 328L785 328L785 307L698 307L698 258L611 258L611 269L524 269L524 280L436 280L436 269L349 269L349 334L262 334L262 350L175 350L175 226L87 226L87 339L0 339Z" fill="#ff5b7f"></path><path d="M0 541L87 541L87 541L175 541L175 541L262 541L262 541L349 541L349 541L436 541L436 541L524 541L524 541L611 541L611 541L698 541L698 541L785 541L785 541L873 541L873 541L960 541L960 541L960 480L960 480L873 480L873 469L785 469L785 469L698 469L698 496L611 496L611 453L524 453L524 496L436 496L436 480L349 480L349 447L262 447L262 480L175 480L175 426L87 426L87 458L0 458Z" fill="#ff0066"></path></svg>