<?xml version="1.0"?>
<svg width="960" height="100" xmlns="http://www.w3.org/2000/svg" xmlns:svg="http://www.w3.org/2000/svg" version="1.1">
 <g class="layer">
  <title>Layer 1</title>
  <path d="m786,100l58,0l0,-9l-317,0l0,-9l58,0l0,-9l201,0l0,-9l-57,0l0,-9l-164,0l0,-10l96,0l0,-9l144,0l0,-9l-201,0l0,-9l9,0l0,-9l39,0l0,-9l308,0l0,9l0,0l0,9l0,0l0,9l0,0l0,9l0,0l0,9l0,0l0,10l0,0l0,9l0,0l0,9l0,0l0,9l0,0l0,9l0,0l0,9l0,0l-174,0z" fill="#ffd0d3" id="svg_1"/>
  <path d="m537,100l48,0l0,-9l-173,0l0,-9l96,0l0,-9l125,0l0,-9l-240,0l0,-9l-48,0l0,-10l57,0l0,-9l135,0l0,-9l-106,0l0,-9l19,0l0,-9l115,0l0,-9l88,0l0,9l-39,0l0,9l-9,0l0,9l201,0l0,9l-144,0l0,9l-96,0l0,10l164,0l0,9l57,0l0,9l-201,0l0,9l-58,0l0,9l317,0l0,9l-58,0l-250,0z" fill="#ffa0ab" id="svg_2"/>
  <path d="m239,100l-134,0l0,-9l-29,0l0,-9l125,0l0,-9l-135,0l0,-9l0,0l0,-9l-9,0l0,-10l76,0l0,-9l48,0l0,-9l-67,0l0,-9l77,0l0,-9l-106,0l0,-9l481,0l0,9l-115,0l0,9l-19,0l0,9l106,0l0,9l-135,0l0,9l-57,0l0,10l48,0l0,9l240,0l0,9l-125,0l0,9l-96,0l0,9l173,0l0,9l-48,0l-299,0z" fill="#ff6a87" id="svg_3"/>
  <path d="m0,100l0,0l0,-9l0,0l0,-9l0,0l0,-9l0,0l0,-9l0,0l0,-9l0,0l0,-10l0,0l0,-9l0,0l0,-9l0,0l0,-9l0,0l0,-9l0,0l0,-9l86,0l0,9l106,0l0,9l-77,0l0,9l67,0l0,9l-48,0l0,9l-76,0l0,10l9,0l0,9l0,0l0,9l135,0l0,9l-125,0l0,9l29,0l0,9l134,0l-240,0z" fill="#ff0066" id="svg_4"/>
 </g>
</svg>