<?xml version="1.0" encoding="utf-8"?>
<svg viewBox="0 0 500 500" xmlns="http://www.w3.org/2000/svg">
  <defs/>
  <g class="layer" transform="matrix(0.491554, 0, 0, 0.491554, -635.809885, -61.097154)" style="">
    <title>Layer 1</title>
    <g id="svg_1">
      <path class="cls-1" d="m1750.61,510.89c28.83,-48.01 70.68,-87.27 120.62,-112.9l0,-55.79l58.27,0l-118.61,-205.44l-118.61,205.44l58.33,0l0,168.69z" id="svg_2" style="fill: rgb(192, 38, 211); stroke-width: 0px;"/>
      <path class="cls-2" d="m2008.01,407.16c-50.24,0 -97.1,14.41 -136.78,39.32c-68.69,43.18 -115.68,117.73 -120.62,203.43c-0.36,5.01 -0.48,10.07 -0.48,15.14l0,2.29c-2.17,29.85 -13.39,57.17 -30.94,79.31c-26.66,33.89 -68.09,55.67 -114.47,55.67c-80.45,0 -145.89,-65.44 -145.89,-145.89l0,-255.17l-120.62,0l0,255.17c0,146.92 119.54,266.51 266.51,266.51c53.63,0 103.59,-15.95 145.43,-43.3l0,249.37l120.62,0l0,-245.72c39.77,25.11 86.85,39.65 137.25,39.65c142.21,0 257.89,-115.68 257.89,-257.89s-115.68,-257.89 -257.89,-257.89l-0.01,0zm0,395.16c-74,0 -134.49,-58.86 -137.15,-132.2c0,-0.06 -0.06,-0.06 0,-0.12c0.24,-4.52 0.36,-9.05 0.36,-13.57l0,-2.29c5.55,-70.62 64.77,-126.35 136.78,-126.35c75.69,0 137.27,61.58 137.27,137.27s-61.58,137.27 -137.27,137.27l0.01,-0.01z" id="svg_3" style="fill: rgb(167, 139, 250); stroke-width: 0px;"/>
    </g>
  </g>
</svg>